HIERARCHY
ROOT Hips
{
 OFFSET 0.000000 0.000000 0.000000
 CHANNELS 6 Xposition Yposition Zposition Yrotation Xrotation Zrotation
 JOINT Chest
 {
  OFFSET 0.000000 9.585900 0.002600
  CHANNELS 3 Yrotation Xrotation Zrotation
  JOINT Chest2
  {
   OFFSET 0.000000 9.601200 -0.005300
   CHANNELS 3 Yrotation Xrotation Zrotation
   JOINT Chest3
   {
    OFFSET 0.000000 9.561800 0.000000
    CHANNELS 3 Yrotation Xrotation Zrotation
    JOINT Chest4
    {
     OFFSET 0.000000 9.552100 0.000000
     CHANNELS 3 Yrotation Xrotation Zrotation
     JOINT Neck
     {
      OFFSET 0.000000 14.453000 0.000000
      CHANNELS 3 Yrotation Xrotation Zrotation
      JOINT Head
      {
       OFFSET 0.000000 8.936500 -0.011300
       CHANNELS 3 Yrotation Xrotation Zrotation
       End Site
       {
        OFFSET 0.000000 17.073600 -0.006000
       }
      }
     }
     JOINT RightCollar
     {
      OFFSET -2.921100 9.558500 0.000000
      CHANNELS 3 Yrotation Xrotation Zrotation
      JOINT RightShoulder
      {
       OFFSET -13.519700 0.000000 0.000000
       CHANNELS 3 Yrotation Xrotation Zrotation
       JOINT RightElbow
       {
        OFFSET 0.000000 -29.696600 0.000000
        CHANNELS 3 Yrotation Xrotation Zrotation
        JOINT RightWrist
        {
         OFFSET 0.000000 -24.004700 0.000000
         CHANNELS 3 Yrotation Xrotation Zrotation
         End Site
         {
          OFFSET 0.000000 -17.728500 0.000000
         }
        }
       }
      }
     }
     JOINT LeftCollar
     {
      OFFSET 2.921100 9.558500 0.000000
      CHANNELS 3 Yrotation Xrotation Zrotation
      JOINT LeftShoulder
      {
       OFFSET 13.519700 0.000000 0.000000
       CHANNELS 3 Yrotation Xrotation Zrotation
       JOINT LeftElbow
       {
        OFFSET 0.000000 -29.696600 0.000000
        CHANNELS 3 Yrotation Xrotation Zrotation
        JOINT LeftWrist
        {
         OFFSET 0.000000 -24.004700 0.000000
         CHANNELS 3 Yrotation Xrotation Zrotation
         End Site
         {
          OFFSET 0.000000 -17.728500 0.000000
         }
        }
       }
      }
     }
    }
   }
  }
 }
 JOINT RightHip
 {
  OFFSET -7.771700 -0.012900 -0.001300
  CHANNELS 3 Yrotation Xrotation Zrotation
  JOINT RightKnee
  {
   OFFSET 0.000000 -40.869800 0.001200
   CHANNELS 3 Yrotation Xrotation Zrotation
   JOINT RightAnkle
   {
    OFFSET 0.000000 -39.717900 0.002100
    CHANNELS 3 Yrotation Xrotation Zrotation
    JOINT RightToe
    {
     OFFSET 0.000000 -4.965400 11.033500
     CHANNELS 3 Yrotation Xrotation Zrotation
     End Site
     {
      OFFSET 0.000000 -1.423100 5.872300
     }
    }
   }
  }
 }
 JOINT LeftHip
 {
  OFFSET 7.771700 -0.012900 -0.001300
  CHANNELS 3 Yrotation Xrotation Zrotation
  JOINT LeftKnee
  {
   OFFSET 0.000000 -40.869800 0.001200
   CHANNELS 3 Yrotation Xrotation Zrotation
   JOINT LeftAnkle
   {
    OFFSET 0.000000 -39.717900 0.002100
    CHANNELS 3 Yrotation Xrotation Zrotation
    JOINT LeftToe
    {
     OFFSET 0.000000 -4.965400 11.033500
     CHANNELS 3 Yrotation Xrotation Zrotation
     End Site
     {
      OFFSET 0.000000 -1.423100 5.872300
     }
    }
   }
  }
 }
}
MOTION
Frames: 12
Frame Time: 0.008333
-12.651093 54.562465 35.436571 -179.498951 -34.089588 -11.547891 -0.518349 13.242254 6.222390 -0.402916 7.578532 2.204236 -0.491375 9.423076 2.763377 -0.429694 7.537803 2.212279 9.604335 22.472613 -2.703076 11.339076 -0.949066 -5.237471 -2.291458 -0.417639 -4.112397 -12.924545 -5.578578 6.834712 -49.260658 -50.679331 66.861712 4.102976 -6.231582 1.516123 -10.127959 2.322368 -2.541478 3.597112 1.756840 -1.784241 -70.532504 -71.343528 80.390120 11.875237 -32.163844 10.358704 -16.966438 -31.299367 7.007076 35.932369 83.920527 31.433097 -0.951275 -17.769972 1.762581 -1.264594 2.374782 -0.560198 -14.899766 -43.189240 16.413473 174.785077 80.413745 169.646684 -2.021765 -17.492069 1.952279 -0.047850 -0.550457 -0.011760
-12.646134 54.592077 35.440747 -179.490848 -34.064844 -11.582569 -0.535342 13.207400 6.250038 -0.433490 7.535257 2.211686 -0.461885 9.470036 2.753027 -0.463793 7.484919 2.226551 9.665989 22.556511 -2.700794 11.470605 -0.806884 -5.230822 -2.276168 -0.461251 -4.098193 -12.935376 -5.713721 6.762555 -50.605850 -49.353931 68.333555 4.125373 -5.954232 2.967775 -10.145129 2.296028 -2.493228 3.644377 1.830861 -1.842956 -70.450342 -71.380749 80.304230 11.875075 -32.119212 10.401967 -16.972962 -31.312905 7.060764 35.732766 83.929328 31.228972 -0.958691 -17.777969 1.781614 -1.259979 2.382272 -0.557663 -14.949559 -43.207421 16.475655 174.776582 80.414813 169.643660 -2.025545 -17.487670 1.941337 -0.049211 -0.548674 -0.012024
-12.644337 54.621039 35.443388 -179.492172 -34.042754 -11.592882 -0.550103 13.175524 6.256726 -0.445645 7.518230 2.215046 -0.473254 9.451040 2.756051 -0.479444 7.465484 2.231515 9.731877 22.646029 -2.699080 11.607713 -0.657967 -5.220929 -2.255163 -0.495719 -4.077893 -12.945422 -5.854922 6.677635 -51.721988 -48.601683 69.581342 3.822971 -5.710787 4.460122 -10.134780 2.315149 -2.486967 3.665183 1.850510 -1.844936 -70.349460 -71.437022 80.194501 11.942768 -32.005241 10.414349 -16.983160 -31.332976 7.100602 35.629321 83.940355 31.098067 -0.962701 -17.781760 1.817857 -1.291021 2.382660 -0.570416 -14.987062 -43.221907 16.523529 174.814468 80.420114 169.668242 -2.032171 -17.482913 1.940028 -0.046676 -0.547522 -0.013070
-12.645123 54.650196 35.443081 -179.495681 -34.032620 -11.588373 -0.567100 13.156021 6.249009 -0.458348 7.499634 2.219002 -0.485404 9.431525 2.758529 -0.495381 7.443085 2.238413 9.890451 22.785807 -2.642432 11.666439 -0.539457 -5.240710 -2.218395 -0.472254 -4.084279 -12.975139 -6.038047 6.613051 -52.684219 -48.275101 70.688980 3.390119 -5.439090 5.969311 -10.107053 2.360502 -2.507627 3.671430 1.851768 -1.821607 -70.239246 -71.574099 80.083169 11.938949 -31.887862 10.386455 -16.984193 -31.349399 7.111116 35.596851 83.955542 31.054512 -0.985396 -17.779312 1.835646 -1.269566 2.374246 -0.573979 -14.987886 -43.228708 16.530183 174.827870 80.427228 169.681502 -2.031588 -17.478767 1.936998 -0.047376 -0.548259 -0.013698
-12.644263 54.677429 35.444240 -179.495625 -34.004172 -11.598791 -0.591342 13.120468 6.257083 -0.463407 7.487041 2.220184 -0.504541 9.400363 2.762096 -0.512990 7.424782 2.251380 9.992625 22.897041 -2.625103 11.784760 -0.392723 -5.246628 -2.180346 -0.520632 -4.061250 -13.000615 -6.154037 6.479141 -53.552046 -48.157507 71.744248 3.163349 -5.034352 7.421415 -10.100811 2.371285 -2.501544 3.716874 1.864533 -1.785854 -70.004794 -71.743011 79.829324 11.942237 -31.763450 10.325094 -16.997183 -31.379217 7.134232 35.598785 83.964788 31.052941 -0.984730 -17.774231 1.828474 -1.273698 2.365193 -0.563280 -15.011421 -43.253771 16.561888 174.870767 80.431405 169.726477 -2.025403 -17.474542 1.929019 -0.050113 -0.548409 -0.011223
-12.645357 54.704111 35.443580 -179.497499 -33.980029 -11.599432 -0.614852 13.089612 6.261951 -0.453888 7.488483 2.213868 -0.544218 9.353129 2.776020 -0.528977 7.405679 2.265592 10.095217 23.009806 -2.612342 11.905062 -0.243392 -5.257708 -2.131454 -0.565940 -4.050229 -13.056215 -6.266441 6.333039 -54.425134 -48.005428 72.913317 3.181599 -4.604070 8.772790 -10.088995 2.384739 -2.502467 3.764363 1.899981 -1.794680 -69.878805 -71.874918 79.691519 11.974267 -31.597343 10.222650 -17.003081 -31.405641 7.151973 35.564019 83.978468 31.009520 -1.011374 -17.777671 1.847204 -1.262857 2.363075 -0.565111 -15.018449 -43.276142 16.574199 174.899270 80.436019 169.759687 -2.019770 -17.471215 1.924628 -0.050458 -0.549226 -0.012736
-12.648684 54.727580 35.445114 -179.477397 -33.927098 -11.601194 -0.661695 13.032843 6.260559 -0.473013 7.472777 2.216664 -0.600398 9.281496 2.805282 -0.515170 7.422482 2.245085 10.195919 23.126084 -2.601658 12.023929 -0.089505 -5.270558 -2.077639 -0.528923 -4.081495 -13.162981 -6.441152 6.227948 -55.301679 -47.707431 74.227306 3.305987 -4.254705 10.046781 -10.071316 2.416726 -2.520028 3.804180 1.931509 -1.802257 -69.773811 -72.010797 79.580522 12.017488 -31.375015 10.080649 -17.032751 -31.459490 7.153507 35.533622 83.994122 30.974209 -1.003481 -17.789456 1.861235 -1.294875 2.366367 -0.573277 -15.047738 -43.330411 16.581645 174.912394 80.441132 169.775386 -2.018428 -17.464311 1.923646 -0.050416 -0.546464 -0.014430
-12.653672 54.753054 35.441575 -179.454987 -33.903887 -11.596142 -0.705342 13.003364 6.253800 -0.492827 7.451166 2.219742 -0.632685 9.231038 2.821544 -0.522590 7.413518 2.240662 10.263392 23.241006 -2.615373 12.165013 0.074353 -5.271997 -2.032570 -0.556034 -4.078340 -13.290923 -6.554219 6.056587 -56.169103 -47.306403 75.660312 3.464257 -3.939650 11.258827 -10.055624 2.457328 -2.540807 3.839486 1.975511 -1.835498 -69.698245 -72.137307 79.510443 12.066223 -31.094506 9.889420 -17.048447 -31.485389 7.136479 35.500593 84.013964 30.916998 -0.938768 -17.800994 1.865734 -1.284274 2.362382 -0.569748 -15.051979 -43.352438 16.560004 174.946613 80.448990 169.816147 -2.015744 -17.462199 1.922566 -0.052883 -0.545072 -0.016591
-12.656844 54.778106 35.438117 -179.445270 -33.879372 -11.596172 -0.735548 12.966321 6.262874 -0.509787 7.431174 2.221350 -0.654080 9.188720 2.832585 -0.540030 7.385726 2.246303 10.326179 23.367370 -2.631023 12.294059 0.248402 -5.275195 -2.001361 -0.573886 -4.077633 -13.433691 -6.670445 5.865957 -57.013128 -46.879248 77.174048 3.604395 -3.622113 12.424302 -10.044260 2.506640 -2.565856 3.882122 2.010742 -1.827525 -69.520070 -72.306121 79.332129 12.116329 -30.753883 9.642429 -17.058965 -31.508432 7.132530 35.502023 84.024168 30.907320 -0.919324 -17.815119 1.873968 -1.282021 2.364124 -0.573395 -15.061581 -43.373299 16.559242 174.942359 80.452613 169.818166 -2.021191 -17.462789 1.922563 -0.049118 -0.543631 -0.019582
-12.659679 54.803831 35.432844 -179.443532 -33.867485 -11.594609 -0.753207 12.933955 6.276100 -0.555961 7.355653 2.252612 -0.650645 9.197583 2.810419 -0.555924 7.355663 2.252585 10.402775 23.511096 -2.621353 12.388732 0.432673 -5.295040 -1.983013 -0.555975 -4.089343 -13.573335 -6.812200 5.670957 -57.807164 -46.486875 78.711816 3.647361 -3.334527 13.579280 -10.026499 2.592379 -2.617534 3.916033 2.009760 -1.758878 -69.306106 -72.444374 79.100869 12.225307 -30.341693 9.343330 -17.054596 -31.519770 7.128981 35.486373 84.034564 30.884171 -0.919574 -17.824797 1.889593 -1.306431 2.363279 -0.575587 -15.061591 -43.379656 16.556045 174.875713 80.454184 169.759154 -2.029335 -17.465899 1.916496 -0.049608 -0.543568 -0.019343
-12.663197 54.827049 35.430228 -179.433219 -33.833615 -11.594149 -0.780214 12.877635 6.283631 -0.569787 7.324527 2.259761 -0.667961 9.158749 2.819101 -0.569747 7.324538 2.259785 10.500377 23.663877 -2.594996 12.450551 0.619142 -5.318861 -1.982156 -0.531831 -4.099029 -13.677682 -6.958898 5.454368 -58.568466 -46.157067 80.256117 3.601839 -3.090545 14.737543 -10.039319 2.638141 -2.625174 3.961054 2.075218 -1.791310 -69.201383 -72.532032 78.990858 12.328366 -29.847734 8.980624 -17.055998 -31.553033 7.131232 35.462163 84.045916 30.855036 -0.945509 -17.836572 1.915171 -1.308676 2.365704 -0.578801 -15.077999 -43.411036 16.556624 174.795071 80.455179 169.684880 -2.036084 -17.464068 1.909260 -0.051575 -0.543890 -0.018880
-12.653100 54.832703 35.457989 -179.222553 -33.553443 -11.786684 -0.999911 12.614083 6.376646 -0.582777 7.293588 2.267776 -0.684248 9.120177 2.828829 -0.582769 7.293624 2.267798 10.539401 23.805482 -2.607980 12.569876 0.808398 -5.327732 -1.995624 -0.504308 -4.110291 -13.734860 -7.115216 5.220040 -59.310887 -45.885806 81.798473 3.521945 -2.897051 15.902335 -10.054096 2.675826 -2.624525 4.018130 2.137083 -1.797389 -68.797285 -72.788339 78.618219 12.305894 -29.296809 8.488783 -17.354544 -31.756545 7.317191 35.249470 84.047756 30.646256 -1.014273 -17.817847 1.944189 -1.260885 2.355237 -0.582156 -15.504275 -43.814279 16.811584 174.708251 80.347575 169.611478 -1.998485 -16.961840 1.908669 -0.098174 -0.953350 -0.041540
